# xmcd CD database file
#
# Track frame offsets:
#	150
#	11644
#	42859
#	64921
#	75971
#	88782
#	123026
#	151946
#	172530
#	194849
#	208407
#	227925
#	246144
#	274181
#	300557
#
# Disc length: 4289 seconds
#
# Revision: 0
# Processed by: cddbd v1.5.2PL0 Copyright (c) Steve Scherf et al.
# Submitted via: CDex 1.51
#
DISCID=c110bf0f
DTITLE=Diverse - Base and Drums - The Jazz Series CD2v1
DYEAR=2008
DGENRE=Jazz
TTITLE0=Cozy Cole and His Orchestra - The Beat ( The Drag)
TTITLE1=Cozy Cole And His Orchestra - Topsy, Part I and II
TTITLE2=Ray Brown with Oscar Peterson Trio - Swingin´On A Star
TTITLE3=Ray Broen - Solo For Unaccompanied Bass
TTITLE4=Chubby Jackson And His Orchestra - Northwest Passage
TTITLE5=Louis Bellson with Duke Ellington And His Orchestra - Skin Deep
TTITLE6=Arvell Shaw with Louis Armstrong And The All Stars - How High The Moon
TTITLE7=Buddy Rich Quintett - The Yellow Rose Of Brooklyn
TTITLE8=Shelly Manne With Elmer Bernstein And Orchestra - Frankie Machine
TTITLE9=Percy Heath with Modern Jazz Quartet - One Bass Hit
TTITLE10=Kenny Clarke and Martial Solal - Cinerama
TTITLE11=Clifford Brown and Max Roach Quintet - Dahoud
TTITLE12=Art Blakey And The Jazz Messengers - Blues March
TTITLE13=Sam Jones with Cannonball Adderley Quintet - That Funky Train
TTITLE14=Paul Chambers - Tale Of The Fingers
EXTD=YEAR: 2008
EXTT0=
EXTT1=
EXTT2=
EXTT3=
EXTT4=
EXTT5=
EXTT6=
EXTT7=
EXTT8=
EXTT9=
EXTT10=
EXTT11=
EXTT12=
EXTT13=
EXTT14=
PLAYORDER=
